# xmcd
#
# Track frame offsets: 
#        200
#        14867
#        27075
#        37830
#        50185
#        62640
#        75415
#        90177
#        107197
#        119565
#        134357
#        150720
#        161815
#        172232
#        182227
#        194645
#        206930
#        221312
#
# Disc length: 3127 seconds
#
# Revision: 2
# Processed by: cddbd v1.5.2PL0 Copyright (c) Steve Scherf et al.
# Submitted via: ExactAudioCopy v0.99pb5
#
DISCID=070c3512
DTITLE=Elmore James - "Lets Cut It" The Very Best of Elmore James
DYEAR=1991
DGENRE=Blues
TTITLE0=Dust My Blues
TTITLE1=Blues Before Sunset
TTITLE2=No Love In My Heart
TTITLE3=Sho Nuff I Do
TTITLE4=Standing At The Crossroads
TTITLE5=I Was a Fool
TTITLE6=SunnyLand
TTITLE7=Canton, Mississippi Breakdown
TTITLE8=Happy Home
TTITLE9=Wild About You Baby
TTITLE10=Long Tall Woman
TTITLE11=So Mean To Me
TTITLE12=Hawaiian Boogie
TTITLE13=Mean and Evil
TTITLE14=Dark and Dreary
TTITLE15=My Best Friend
TTITLE16=I Believe
TTITLE17=Goodbye Baby
EXTD=
EXTT0=
EXTT1=
EXTT2=
EXTT3=
EXTT4=
EXTT5=
EXTT6=
EXTT7=
EXTT8=
EXTT9=
EXTT10=
EXTT11=
EXTT12=
EXTT13=
EXTT14=
EXTT15=
EXTT16=
EXTT17=
PLAYORDER=
